<svg id="cat-svg" xmlns="http://www.w3.org/2000/svg" viewBox="0 0 80 80" width="80" height="80">
  <defs>
    <!-- Cat shadow / depth filter -->
    <filter id="ink-shadow" x="-20%" y="-20%" width="140%" height="140%">
      <feDropShadow dx="1.5" dy="2" stdDeviation="1.5" flood-color="#0a0a0a" flood-opacity="0.6"/>
    </filter>
    <filter id="ink-shadow-sm" x="-10%" y="-10%" width="120%" height="120%">
      <feDropShadow dx="0.8" dy="1" stdDeviation="0.8" flood-color="#0a0a0a" flood-opacity="0.5"/>
    </filter>
    <!-- Bubble tail -->
    <marker id="bubble-tail" viewBox="0 0 6 6" refX="3" refY="3" markerWidth="3" markerHeight="3">
      <path d="M0,6 L3,0 L6,6 Z" fill="#f0ede8"/>
    </marker>
    <!-- Inky rough edge texture via turbulence -->
    <filter id="inky" x="-5%" y="-5%" width="110%" height="110%">
      <feTurbulence type="fractalNoise" baseFrequency="0.04" numOctaves="4" seed="2" result="noise"/>
      <feDisplacementMap in="SourceGraphic" in2="noise" scale="1.2" xChannelSelector="R" yChannelSelector="G"/>
    </filter>

    <!-- Colors -->
    <!-- Body: #1a1a1a, fur detail: #3a3a3a, belly: #6e6e6e, eye: #e8c547, nose: #c97a7a -->
  </defs>

  <!-- ═══════════════════════════════════════════════════════
       POSE: idle  (default, breathing + tail sway)
  ════════════════════════════════════════════════════════════ -->
  <g id="pose-idle" class="pose active">

    <!-- Tail (animated separately via CSS) -->
    <g id="idle-tail" style="transform-origin: 60px 62px;">
      <path d="M58,62 Q72,55 75,45 Q78,35 72,30 Q68,26 64,30 Q61,34 63,40 Q65,46 60,54 Z"
            fill="#2a2a2a" filter="url(#inky)" stroke="#111" stroke-width="0.5"/>
      <!-- tail tip lighter -->
      <ellipse cx="65" cy="29" rx="4" ry="5" fill="#5a5a5a" transform="rotate(-15,65,29)"/>
    </g>

    <!-- Body -->
    <g filter="url(#ink-shadow)">
      <!-- Main body blob -->
      <path d="M22,60 Q18,48 20,38 Q22,28 32,24 Q42,20 52,24 Q60,28 60,38 Q62,50 58,62 Q50,68 38,68 Q26,68 22,60 Z"
            fill="#1e1e1e" filter="url(#inky)"/>
      <!-- Belly / chest lighter fur -->
      <path d="M32,38 Q38,32 46,36 Q50,42 48,54 Q44,60 38,60 Q32,58 30,52 Q28,44 32,38 Z"
            fill="#4a4a4a" filter="url(#inky)" opacity="0.9"/>
      <!-- Belly highlight -->
      <path d="M35,44 Q38,40 43,43 Q45,50 42,56 Q39,58 36,55 Q33,50 35,44 Z"
            fill="#6e6e6e" opacity="0.7"/>
    </g>

    <!-- Head group (slight bob in idle) -->
    <g id="idle-head">
      <!-- Ears -->
      <path d="M24,32 L20,16 L32,26 Z" fill="#1a1a1a" filter="url(#inky)"/>
      <path d="M54,32 L58,16 L47,26 Z" fill="#1a1a1a" filter="url(#inky)"/>
      <!-- Inner ear pink -->
      <path d="M25,30 L22,19 L30,27 Z" fill="#a06060" opacity="0.7"/>
      <path d="M53,30 L56,19 L49,27 Z" fill="#a06060" opacity="0.7"/>

      <!-- Head shape -->
      <ellipse cx="40" cy="32" rx="18" ry="16" fill="#242424" filter="url(#ink-shadow)"/>
      <!-- Forehead fur texture -->
      <path d="M28,24 Q40,18 52,24 Q48,20 40,19 Q32,20 28,24Z" fill="#3a3a3a" opacity="0.5"/>

      <!-- Eyes (open) -->
      <g id="idle-eyes-open">
        <!-- Left eye -->
        <ellipse cx="33" cy="30" rx="5" ry="5.5" fill="#e8c547"/>
        <ellipse cx="33" cy="30" rx="2.5" ry="4.5" fill="#111"/>
        <circle cx="34.5" cy="28.5" r="1" fill="white" opacity="0.8"/>
        <!-- Right eye -->
        <ellipse cx="47" cy="30" rx="5" ry="5.5" fill="#e8c547"/>
        <ellipse cx="47" cy="30" rx="2.5" ry="4.5" fill="#111"/>
        <circle cx="48.5" cy="28.5" r="1" fill="white" opacity="0.8"/>
      </g>
      <!-- Eyes (blink - shown via CSS class swap) -->
      <g id="idle-eyes-blink" style="display:none">
        <path d="M28,30 Q33,35 38,30" fill="none" stroke="#111" stroke-width="2.5" stroke-linecap="round"/>
        <path d="M42,30 Q47,35 52,30" fill="none" stroke="#111" stroke-width="2.5" stroke-linecap="round"/>
      </g>

      <!-- Nose -->
      <path d="M38,37 L40,35 L42,37 L40,39 Z" fill="#c97a7a"/>
      <!-- Mouth -->
      <path d="M37,39 Q40,42 43,39" fill="none" stroke="#333" stroke-width="1.2" stroke-linecap="round"/>
      <!-- Whiskers -->
      <line x1="22" y1="36" x2="34" y2="37" stroke="#888" stroke-width="0.7" opacity="0.8"/>
      <line x1="22" y1="39" x2="34" y2="39" stroke="#888" stroke-width="0.7" opacity="0.8"/>
      <line x1="46" y1="37" x2="58" y2="36" stroke="#888" stroke-width="0.7" opacity="0.8"/>
      <line x1="46" y1="39" x2="58" y2="39" stroke="#888" stroke-width="0.7" opacity="0.8"/>
    </g>

    <!-- Paws (idle, resting) -->
    <ellipse cx="32" cy="68" rx="6" ry="4" fill="#2a2a2a" filter="url(#inky)"/>
    <ellipse cx="46" cy="68" rx="6" ry="4" fill="#2a2a2a" filter="url(#inky)"/>
    <!-- Paw toes -->
    <path d="M28,67 Q30,65 32,66 Q34,65 36,67" fill="none" stroke="#444" stroke-width="0.8"/>
    <path d="M42,67 Q44,65 46,66 Q48,65 50,67" fill="none" stroke="#444" stroke-width="0.8"/>
  </g>

  <!-- ═══════════════════════════════════════════════════════
       POSE: walk
  ════════════════════════════════════════════════════════════ -->
  <g id="pose-walk" class="pose" style="display:none">
    <!-- Tail up/curved -->
    <path d="M58,58 Q70,45 68,30 Q67,22 62,23 Q58,24 59,32 Q60,42 55,55 Z"
          fill="#2a2a2a" filter="url(#inky)"/>
    <ellipse cx="62" cy="22" rx="4" ry="5" fill="#5a5a5a"/>

    <g filter="url(#ink-shadow)">
      <path d="M22,56 Q18,44 22,34 Q26,24 38,22 Q50,20 56,28 Q62,36 60,50 Q56,60 44,64 Q30,66 22,56Z"
            fill="#1e1e1e" filter="url(#inky)"/>
      <path d="M30,36 Q38,30 46,34 Q50,42 46,54 Q40,60 34,56 Q28,50 30,36Z"
            fill="#4a4a4a"/>
    </g>

    <!-- Walking legs (alternating) -->
    <!-- Front left (forward) -->
    <path d="M28,60 Q24,68 26,76" stroke="#1a1a1a" stroke-width="7" fill="none" stroke-linecap="round"/>
    <ellipse cx="26" cy="76" rx="5" ry="3.5" fill="#2a2a2a"/>
    <!-- Front right (back) -->
    <path d="M36,62 Q38,68 34,72" stroke="#1a1a1a" stroke-width="7" fill="none" stroke-linecap="round"/>
    <ellipse cx="34" cy="72" rx="5" ry="3.5" fill="#2a2a2a"/>
    <!-- Rear left (forward) -->
    <path d="M48,62 Q50,70 52,76" stroke="#2a2a2a" stroke-width="6" fill="none" stroke-linecap="round" opacity="0.8"/>
    <ellipse cx="52" cy="76" rx="4.5" ry="3" fill="#2a2a2a" opacity="0.8"/>
    <!-- Rear right (back) -->
    <path d="M55,60 Q54,64 50,68" stroke="#2a2a2a" stroke-width="6" fill="none" stroke-linecap="round" opacity="0.8"/>
    <ellipse cx="50" cy="68" rx="4.5" ry="3" fill="#2a2a2a" opacity="0.8"/>

    <!-- Head (same structure, reused) -->
    <g>
      <path d="M22,30 L18,14 L30,24 Z" fill="#1a1a1a" filter="url(#inky)"/>
      <path d="M52,30 L56,14 L45,24 Z" fill="#1a1a1a" filter="url(#inky)"/>
      <path d="M23,28 L20,17 L28,25 Z" fill="#a06060" opacity="0.7"/>
      <path d="M51,28 L54,17 L47,25 Z" fill="#a06060" opacity="0.7"/>
      <ellipse cx="38" cy="30" rx="18" ry="16" fill="#242424" filter="url(#ink-shadow)"/>
      <ellipse cx="31" cy="28" rx="5" ry="5.5" fill="#e8c547"/>
      <ellipse cx="31" cy="28" rx="2.5" ry="4.5" fill="#111"/>
      <circle cx="32.5" cy="26.5" r="1" fill="white" opacity="0.8"/>
      <ellipse cx="45" cy="28" rx="5" ry="5.5" fill="#e8c547"/>
      <ellipse cx="45" cy="28" rx="2.5" ry="4.5" fill="#111"/>
      <circle cx="46.5" cy="26.5" r="1" fill="white" opacity="0.8"/>
      <path d="M36,35 L38,33 L40,35 L38,37 Z" fill="#c97a7a"/>
      <path d="M35,37 Q38,40 41,37" fill="none" stroke="#333" stroke-width="1.2" stroke-linecap="round"/>
      <line x1="20" y1="34" x2="32" y2="35" stroke="#888" stroke-width="0.7" opacity="0.8"/>
      <line x1="44" y1="35" x2="56" y2="34" stroke="#888" stroke-width="0.7" opacity="0.8"/>
    </g>
  </g>

  <!-- ═══════════════════════════════════════════════════════
       POSE: typing
  ════════════════════════════════════════════════════════════ -->
  <g id="pose-typing" class="pose" style="display:none">
    <!-- Tail relaxed behind -->
    <path d="M60,62 Q72,60 74,52 Q72,42 66,42 Q62,42 62,50 Q62,58 58,62 Z"
          fill="#2a2a2a" filter="url(#inky)"/>
    <ellipse cx="66" cy="41" rx="4" ry="4.5" fill="#5a5a5a"/>

    <g filter="url(#ink-shadow)">
      <path d="M22,62 Q18,50 20,38 Q22,26 34,22 Q46,18 56,24 Q64,30 62,44 Q62,56 56,64 Q46,70 34,70 Q24,68 22,62Z"
            fill="#1e1e1e" filter="url(#inky)"/>
      <path d="M32,38 Q40,30 48,36 Q52,44 50,58 Q44,64 38,62 Q30,58 30,48 Q28,40 32,38Z"
            fill="#4a4a4a"/>
      <path d="M35,44 Q40,38 45,43 Q47,52 42,58 Q38,60 35,57 Q32,50 35,44Z"
            fill="#6e6e6e" opacity="0.7"/>
    </g>

    <!-- Paws (typing position - raised and tapping) -->
    <g id="typing-paws">
      <path d="M30,60 Q26,52 28,46" stroke="#1a1a1a" stroke-width="7" fill="none" stroke-linecap="round"/>
      <ellipse cx="28" cy="44" rx="6" ry="4" fill="#2a2a2a" transform="rotate(-20,28,44)"/>
      <path d="M48,60 Q52,52 50,46" stroke="#1a1a1a" stroke-width="7" fill="none" stroke-linecap="round"/>
      <ellipse cx="50" cy="44" rx="6" ry="4" fill="#2a2a2a" transform="rotate(20,50,44)"/>
    </g>
    <!-- Tiny keyboard hint -->
    <rect x="20" y="70" width="36" height="8" rx="2" fill="#2a2a2a" opacity="0.4"/>
    <rect x="22" y="72" width="6" height="3" rx="1" fill="#444" opacity="0.5"/>
    <rect x="30" y="72" width="6" height="3" rx="1" fill="#444" opacity="0.5"/>
    <rect x="38" y="72" width="6" height="3" rx="1" fill="#444" opacity="0.5"/>
    <rect x="46" y="72" width="6" height="3" rx="1" fill="#444" opacity="0.5"/>

    <!-- Head (slightly bowed) -->
    <g transform="translate(0,2)">
      <path d="M24,30 L20,14 L32,24 Z" fill="#1a1a1a" filter="url(#inky)"/>
      <path d="M54,30 L58,14 L47,24 Z" fill="#1a1a1a" filter="url(#inky)"/>
      <path d="M25,28 L22,17 L30,25 Z" fill="#a06060" opacity="0.7"/>
      <path d="M53,28 L56,17 L49,25 Z" fill="#a06060" opacity="0.7"/>
      <ellipse cx="40" cy="30" rx="18" ry="16" fill="#242424" filter="url(#ink-shadow)"/>
      <!-- Focused narrowed eyes -->
      <ellipse cx="33" cy="30" rx="4" ry="3.5" fill="#e8c547"/>
      <ellipse cx="33" cy="30" rx="2" ry="3" fill="#111"/>
      <circle cx="34" cy="29" r="0.8" fill="white" opacity="0.8"/>
      <ellipse cx="47" cy="30" rx="4" ry="3.5" fill="#e8c547"/>
      <ellipse cx="47" cy="30" rx="2" ry="3" fill="#111"/>
      <circle cx="48" cy="29" r="0.8" fill="white" opacity="0.8"/>
      <!-- Tongue sticking out -->
      <path d="M38,37 L40,35 L42,37 L40,39 Z" fill="#c97a7a"/>
      <ellipse id="tongue" cx="40" cy="41" rx="3" ry="2.5" fill="#e08080" opacity="0"/>
      <line x1="22" y1="36" x2="34" y2="37" stroke="#888" stroke-width="0.7" opacity="0.7"/>
      <line x1="46" y1="37" x2="58" y2="36" stroke="#888" stroke-width="0.7" opacity="0.7"/>
    </g>
  </g>

  <!-- ═══════════════════════════════════════════════════════
       POSE: scroll (curled ball)
  ════════════════════════════════════════════════════════════ -->
  <g id="pose-scroll" class="pose" style="display:none">
    <!-- Full curled ball shape -->
    <circle cx="40" cy="46" r="22" fill="#1e1e1e" filter="url(#ink-shadow)"/>
    <!-- Fur pattern on ball -->
    <path d="M20,46 Q24,34 36,28 Q48,24 58,32 Q66,40 62,52 Q56,64 44,66 Q30,66 22,58 Z"
          fill="#242424" filter="url(#inky)"/>
    <!-- Belly curl -->
    <path d="M26,50 Q30,40 40,38 Q50,38 54,46 Q52,56 44,60 Q34,62 28,56 Z"
          fill="#4a4a4a" opacity="0.8"/>
    <!-- Visible tail wrapping around -->
    <path d="M58,32 Q70,28 68,44 Q66,56 54,60" fill="none" stroke="#3a3a3a" stroke-width="7" stroke-linecap="round"/>
    <ellipse cx="53" cy="61" rx="5" ry="4" fill="#5a5a5a"/>
    <!-- Tucked head - just visible eyes peering -->
    <ellipse cx="36" cy="44" rx="3.5" ry="3" fill="#e8c547"/>
    <ellipse cx="36" cy="44" rx="1.5" ry="2.5" fill="#111"/>
    <ellipse cx="44" cy="44" rx="3.5" ry="3" fill="#e8c547"/>
    <ellipse cx="44" cy="44" rx="1.5" ry="2.5" fill="#111"/>
    <!-- Small nose -->
    <circle cx="40" cy="48" r="1.5" fill="#c97a7a"/>
  </g>

  <!-- ═══════════════════════════════════════════════════════
       POSE: hungry (standing on hind legs)
  ════════════════════════════════════════════════════════════ -->
  <g id="pose-hungry" class="pose" style="display:none">
    <!-- Rear haunches / legs on ground -->
    <path d="M26,72 Q24,62 28,56" stroke="#1a1a1a" stroke-width="10" fill="none" stroke-linecap="round"/>
    <path d="M52,72 Q54,62 50,56" stroke="#1a1a1a" stroke-width="10" fill="none" stroke-linecap="round"/>
    <ellipse cx="24" cy="74" rx="7" ry="4" fill="#2a2a2a"/>
    <ellipse cx="54" cy="74" rx="7" ry="4" fill="#2a2a2a"/>

    <!-- Body (upright) -->
    <g filter="url(#ink-shadow)">
      <path d="M26,56 Q22,44 26,34 Q30,24 40,22 Q50,22 54,32 Q56,42 52,54 Q46,62 38,62 Q28,60 26,56Z"
            fill="#1e1e1e" filter="url(#inky)"/>
      <path d="M32,36 Q38,28 46,34 Q48,44 44,54 Q40,60 36,56 Q30,50 32,36Z"
            fill="#4a4a4a"/>
    </g>

    <!-- Reaching paws (raised) -->
    <path d="M28,52 Q20,42 18,32" stroke="#1a1a1a" stroke-width="7" fill="none" stroke-linecap="round"/>
    <ellipse cx="17" cy="30" rx="6" ry="4" fill="#2a2a2a" transform="rotate(-30,17,30)"/>
    <path d="M50,52 Q58,42 62,32" stroke="#1a1a1a" stroke-width="7" fill="none" stroke-linecap="round"/>
    <ellipse cx="63" cy="30" rx="6" ry="4" fill="#2a2a2a" transform="rotate(30,63,30)"/>

    <!-- Head -->
    <g>
      <path d="M22,26 L18,10 L30,22 Z" fill="#1a1a1a" filter="url(#inky)"/>
      <path d="M56,26 L60,10 L50,22 Z" fill="#1a1a1a" filter="url(#inky)"/>
      <path d="M23,24 L20,13 L28,21 Z" fill="#a06060" opacity="0.7"/>
      <path d="M55,24 L58,13 L52,21 Z" fill="#a06060" opacity="0.7"/>
      <ellipse cx="40" cy="26" rx="18" ry="16" fill="#242424" filter="url(#ink-shadow)"/>
      <!-- Big pleading eyes -->
      <ellipse cx="33" cy="24" rx="6" ry="6.5" fill="#e8c547"/>
      <ellipse cx="33" cy="24" rx="3" ry="5.5" fill="#111"/>
      <circle cx="35" cy="22" r="1.5" fill="white" opacity="0.9"/>
      <ellipse cx="47" cy="24" rx="6" ry="6.5" fill="#e8c547"/>
      <ellipse cx="47" cy="24" rx="3" ry="5.5" fill="#111"/>
      <circle cx="49" cy="22" r="1.5" fill="white" opacity="0.9"/>
      <!-- Open mouth -->
      <path d="M36,31 L38,29 L42,29 L44,31 Q40,36 36,31Z" fill="#111"/>
      <path d="M37,31 Q40,34 43,31" fill="#c97a7a"/>
      <line x1="22" y1="30" x2="34" y2="28" stroke="#888" stroke-width="0.7" opacity="0.8"/>
      <line x1="46" y1="28" x2="58" y2="30" stroke="#888" stroke-width="0.7" opacity="0.8"/>
    </g>
    <!-- Tail droopy/sad -->
    <path d="M54,56 Q64,60 64,70 Q62,76 56,74" fill="none" stroke="#3a3a3a" stroke-width="7" stroke-linecap="round"/>
  </g>

  <!-- ═══════════════════════════════════════════════════════
       POSE: eating (nom nom)
  ════════════════════════════════════════════════════════════ -->
  <g id="pose-eating" class="pose" style="display:none">
    <path d="M58,62 Q70,54 72,42 Q74,32 68,28 Q63,24 60,30 Q58,38 60,50 Z"
          fill="#2a2a2a" filter="url(#inky)"/>
    <ellipse cx="68" cy="27" rx="4" ry="5" fill="#5a5a5a" transform="rotate(-15,68,27)"/>

    <g filter="url(#ink-shadow)">
      <path d="M22,62 Q18,50 20,38 Q22,26 34,22 Q46,18 58,26 Q64,34 62,48 Q60,62 48,68 Q32,70 22,62Z"
            fill="#1e1e1e" filter="url(#inky)"/>
      <path d="M32,40 Q40,32 48,38 Q52,46 48,60 Q42,66 36,62 Q28,56 32,40Z"
            fill="#4a4a4a"/>
    </g>

    <!-- Paws -->
    <ellipse cx="32" cy="70" rx="6" ry="4" fill="#2a2a2a"/>
    <ellipse cx="48" cy="70" rx="6" ry="4" fill="#2a2a2a"/>

    <!-- Head with open/chewing mouth -->
    <g id="eating-head">
      <path d="M24,30 L20,14 L32,24 Z" fill="#1a1a1a"/>
      <path d="M54,30 L58,14 L47,24 Z" fill="#1a1a1a"/>
      <path d="M25,28 L22,17 L30,25 Z" fill="#a06060" opacity="0.7"/>
      <path d="M53,28 L56,17 L49,25 Z" fill="#a06060" opacity="0.7"/>
      <ellipse cx="40" cy="30" rx="18" ry="16" fill="#242424" filter="url(#ink-shadow)"/>
      <!-- Happy eating eyes - curved -->
      <path d="M28,28 Q33,24 38,28" fill="none" stroke="#e8c547" stroke-width="3" stroke-linecap="round"/>
      <path d="M42,28 Q47,24 52,28" fill="none" stroke="#e8c547" stroke-width="3" stroke-linecap="round"/>
      <!-- Chewing mouth -->
      <path d="M34,35 Q36,33 40,33 Q44,33 46,35 Q44,40 40,41 Q36,40 34,35Z" fill="#111"/>
      <path d="M35,35 Q40,38 45,35" fill="#c97a7a" opacity="0.8"/>
      <!-- Blush cheeks (cute eating) -->
      <circle cx="28" cy="34" r="4" fill="#e08080" opacity="0.3"/>
      <circle cx="52" cy="34" r="4" fill="#e08080" opacity="0.3"/>
      <line x1="22" y1="36" x2="34" y2="36" stroke="#888" stroke-width="0.7" opacity="0.6"/>
      <line x1="46" y1="36" x2="58" y2="36" stroke="#888" stroke-width="0.7" opacity="0.6"/>
    </g>

    <!-- Small food bowl hint -->
    <path d="M16,74 Q20,68 28,68 Q36,68 38,74 Z" fill="#888" opacity="0.5"/>
    <path d="M17,74 Q22,72 28,72 Q34,72 37,74" fill="none" stroke="#aaa" stroke-width="1"/>
  </g>

  <!-- ═══════════════════════════════════════════════════════
       POSE: overfed (slumped, spiral eyes)
  ════════════════════════════════════════════════════════════ -->
  <g id="pose-overfed" class="pose" style="display:none">
    <!-- Very fat body, slumped sideways -->
    <g filter="url(#ink-shadow)">
      <path d="M14,58 Q12,44 18,34 Q26,22 42,22 Q58,22 64,34 Q70,46 64,58 Q56,70 40,72 Q22,72 14,58Z"
            fill="#1e1e1e" filter="url(#inky)"/>
      <!-- Big round belly -->
      <ellipse cx="40" cy="52" rx="18" ry="16" fill="#4a4a4a"/>
      <ellipse cx="40" cy="52" rx="12" ry="10" fill="#6e6e6e" opacity="0.7"/>
    </g>

    <!-- Tail limp -->
    <path d="M62,60 Q72,66 68,74" fill="none" stroke="#3a3a3a" stroke-width="7" stroke-linecap="round"/>

    <!-- Head (tilted/droopy) -->
    <g transform="rotate(15, 40, 32)">
      <path d="M22,28 L20,12 L30,22 Z" fill="#1a1a1a"/>
      <path d="M52,28 L56,12 L46,22 Z" fill="#1a1a1a"/>
      <path d="M23,26 L21,15 L29,21 Z" fill="#a06060" opacity="0.7"/>
      <path d="M51,26 L54,15 L48,21 Z" fill="#a06060" opacity="0.7"/>
      <ellipse cx="40" cy="28" rx="18" ry="15" fill="#242424" filter="url(#ink-shadow)"/>
      <!-- Spiral/X eyes -->
      <g id="overfed-left-eye" transform="translate(33,28)">
        <circle r="6" fill="#e8c547"/>
        <path d="M-3,-3 Q0,0 3,3 M3,-3 Q0,0 -3,3" fill="none" stroke="#111" stroke-width="2" stroke-linecap="round"/>
      </g>
      <g id="overfed-right-eye" transform="translate(47,28)">
        <circle r="6" fill="#e8c547"/>
        <path d="M-3,-3 Q0,0 3,3 M3,-3 Q0,0 -3,3" fill="none" stroke="#111" stroke-width="2" stroke-linecap="round"/>
      </g>
      <!-- Dazed smile / wavy mouth -->
      <path d="M34,34 Q37,37 40,34 Q43,37 46,34" fill="none" stroke="#555" stroke-width="1.5" stroke-linecap="round"/>
      <!-- Drool line -->
      <path d="M40,36 Q42,40 41,44" fill="none" stroke="#6699cc" stroke-width="1.5" stroke-linecap="round" opacity="0.6"/>
    </g>
    <!-- Stubby paws sticking up -->
    <ellipse cx="26" cy="70" rx="7" ry="5" fill="#2a2a2a"/>
    <ellipse cx="54" cy="70" rx="7" ry="5" fill="#2a2a2a"/>
  </g>

  <!-- ═══════════════════════════════════════════════════════
       POSE: sleeping (curled with Zs)
  ════════════════════════════════════════════════════════════ -->
  <g id="pose-sleeping" class="pose" style="display:none">
    <!-- Tight curl -->
    <circle cx="40" cy="50" r="24" fill="#1a1a1a" filter="url(#ink-shadow)"/>
    <path d="M18,50 Q22,34 36,28 Q50,24 60,34 Q68,44 64,56 Q58,66 44,68 Q28,68 20,60 Z"
          fill="#242424" filter="url(#inky)"/>
    <path d="M24,52 Q28,40 40,38 Q52,38 56,48 Q54,60 44,62 Q30,64 24,52Z"
          fill="#4a4a4a"/>
    <!-- Tail wrapped -->
    <path d="M60,36 Q74,30 72,50 Q70,64 56,66" fill="none" stroke="#3a3a3a" stroke-width="8" stroke-linecap="round"/>
    <ellipse cx="54" cy="67" rx="6" ry="4" fill="#555"/>
    <!-- Closed eyes -->
    <path d="M32,46 Q36,50 40,46" fill="none" stroke="#888" stroke-width="2" stroke-linecap="round"/>
    <path d="M40,46 Q44,50 48,46" fill="none" stroke="#888" stroke-width="2" stroke-linecap="round"/>
    <!-- Small content smile -->
    <path d="M37,50 Q40,53 43,50" fill="none" stroke="#555" stroke-width="1.2" stroke-linecap="round"/>
  </g>

  <!-- ═══════════════════════════════════════════════════════
       POSE: playing
  ════════════════════════════════════════════════════════════ -->
  <g id="pose-playing" class="pose" style="display:none">
    <!-- Tail up and excited -->
    <path d="M56,58 Q70,46 70,30 Q70,20 64,20 Q60,20 60,28 Q60,38 56,52 Z"
          fill="#2a2a2a" filter="url(#inky)"/>
    <ellipse cx="64" cy="19" rx="4.5" ry="5.5" fill="#5a5a5a"/>

    <g filter="url(#ink-shadow)">
      <path d="M18,60 Q16,46 22,34 Q28,22 40,20 Q52,18 58,28 Q64,38 60,54 Q56,66 42,68 Q26,70 18,60Z"
            fill="#1e1e1e" filter="url(#inky)"/>
      <path d="M28,36 Q38,28 48,36 Q52,46 46,58 Q40,64 34,60 Q26,54 28,36Z"
            fill="#4a4a4a"/>
    </g>

    <!-- Batting paw (extended) -->
    <path d="M24,52 Q14,44 10,36" stroke="#1a1a1a" stroke-width="8" fill="none" stroke-linecap="round"/>
    <ellipse cx="9" cy="34" rx="7" ry="5" fill="#2a2a2a" transform="rotate(-20,9,34)"/>
    <!-- Resting paw -->
    <ellipse cx="52" cy="68" rx="6" ry="4" fill="#2a2a2a"/>

    <!-- Pixel ball (animated separately) -->
    <g id="pixel-ball">
      <circle cx="6" cy="52" r="5" fill="#66ccff" opacity="0.9"/>
      <circle cx="6" cy="52" r="3" fill="#99ddff"/>
      <circle cx="5" cy="51" r="1.5" fill="white" opacity="0.8"/>
    </g>

    <!-- Excited head -->
    <g>
      <path d="M20,28 L16,12 L28,22 Z" fill="#1a1a1a"/>
      <path d="M52,28 L56,12 L46,22 Z" fill="#1a1a1a"/>
      <path d="M21,26 L18,15 L26,21 Z" fill="#a06060" opacity="0.7"/>
      <path d="M51,26 L54,15 L48,21 Z" fill="#a06060" opacity="0.7"/>
      <ellipse cx="38" cy="28" rx="18" ry="16" fill="#242424" filter="url(#ink-shadow)"/>
      <!-- Wide excited eyes -->
      <ellipse cx="31" cy="26" rx="6" ry="6" fill="#e8c547"/>
      <ellipse cx="31" cy="26" rx="3" ry="5" fill="#111"/>
      <circle cx="33" cy="24" r="1.5" fill="white" opacity="0.9"/>
      <ellipse cx="45" cy="26" rx="6" ry="6" fill="#e8c547"/>
      <ellipse cx="45" cy="26" rx="3" ry="5" fill="#111"/>
      <circle cx="47" cy="24" r="1.5" fill="white" opacity="0.9"/>
      <!-- Open excited mouth -->
      <path d="M34,33 Q38,36 42,33" fill="none" stroke="#333" stroke-width="1.5" stroke-linecap="round"/>
      <line x1="20" y1="32" x2="30" y2="30" stroke="#888" stroke-width="0.7"/>
      <line x1="46" y1="30" x2="56" y2="32" stroke="#888" stroke-width="0.7"/>
    </g>
  </g>

  <!-- ═══════════════════════════════════════════════════════
       POSE: angry
  ════════════════════════════════════════════════════════════ -->
  <g id="pose-angry" class="pose" style="display:none">
    <!-- Puffed tail -->
    <path d="M58,60 Q72,52 78,40 Q80,28 74,24 Q68,20 64,28 Q62,36 64,46 Q64,54 58,60Z"
          fill="#333" filter="url(#inky)"/>
    <!-- Puffy tail fur details -->
    <path d="M66,28 Q72,24 74,30 Q76,36 70,40" fill="none" stroke="#555" stroke-width="2"/>
    <path d="M68,40 Q76,38 74,46 Q72,52 66,50" fill="none" stroke="#555" stroke-width="2"/>

    <g filter="url(#ink-shadow)">
      <path d="M20,64 Q16,50 20,38 Q24,26 36,22 Q48,18 58,26 Q66,34 64,50 Q62,64 50,70 Q34,74 20,64Z"
            fill="#1e1e1e" filter="url(#inky)"/>
      <!-- Raised hackles on back -->
      <path d="M36,22 Q40,14 44,22" fill="#2a2a2a" stroke="#111" stroke-width="0.5"/>
      <path d="M42,20 Q46,12 50,20" fill="#2a2a2a" stroke="#111" stroke-width="0.5"/>
      <path d="M48,22 Q52,14 56,22" fill="#2a2a2a" stroke="#111" stroke-width="0.5"/>
      <path d="M30,36 Q38,28 48,36 Q52,46 46,58 Q40,64 34,60 Q26,54 30,36Z" fill="#4a4a4a"/>
    </g>

    <!-- Paws (tense) -->
    <ellipse cx="30" cy="72" rx="7" ry="4.5" fill="#2a2a2a"/>
    <ellipse cx="50" cy="72" rx="7" ry="4.5" fill="#2a2a2a"/>

    <!-- Angry head -->
    <g>
      <!-- Sharp angry ears -->
      <path d="M20,30 L14,10 L28,24 Z" fill="#1a1a1a"/>
      <path d="M58,30 L64,10 L52,24 Z" fill="#1a1a1a"/>
      <path d="M22,28 L17,13 L26,23 Z" fill="#a06060" opacity="0.7"/>
      <path d="M56,28 L61,13 L54,23 Z" fill="#a06060" opacity="0.7"/>
      <ellipse cx="40" cy="32" rx="20" ry="17" fill="#1e1e1e" filter="url(#ink-shadow)"/>
      <!-- Angry slanted eyebrows -->
      <path d="M26,24 L36,27" stroke="#111" stroke-width="3" stroke-linecap="round"/>
      <path d="M44,27 L54,24" stroke="#111" stroke-width="3" stroke-linecap="round"/>
      <!-- Narrowed angry eyes -->
      <ellipse cx="33" cy="30" rx="5" ry="4" fill="#e8c547"/>
      <ellipse cx="33" cy="30" rx="2.5" ry="3.5" fill="#111"/>
      <ellipse cx="47" cy="30" rx="5" ry="4" fill="#e8c547"/>
      <ellipse cx="47" cy="30" rx="2.5" ry="3.5" fill="#111"/>
      <!-- Pupils shifted inward (intense stare) -->
      <ellipse cx="34" cy="30" rx="1.5" ry="3" fill="#111"/>
      <ellipse cx="46" cy="30" rx="1.5" ry="3" fill="#111"/>
      <!-- Flat angry mouth -->
      <path d="M34,38 Q40,36 46,38" fill="none" stroke="#555" stroke-width="1.5" stroke-linecap="round"/>
      <line x1="20" y1="34" x2="30" y2="32" stroke="#888" stroke-width="0.7"/>
      <line x1="50" y1="32" x2="60" y2="34" stroke="#888" stroke-width="0.7"/>
    </g>
  </g>

  <!-- ═══════════════════════════════════════════════════════
       POSE: startled (arched back)
  ════════════════════════════════════════════════════════════ -->
  <g id="pose-startled" class="pose" style="display:none">
    <!-- Tail straight up puffed -->
    <path d="M56,56 L54,20 Q54,12 60,12 Q66,12 66,20 L64,56 Z"
          fill="#333" filter="url(#inky)"/>
    <path d="M55,16 Q52,10 58,8 Q64,8 64,16" fill="none" stroke="#555" stroke-width="2"/>

    <!-- Arched body -->
    <g filter="url(#ink-shadow)">
      <path d="M16,70 Q12,56 18,42 Q22,28 36,22 Q46,18 56,26 Q66,34 66,50 Q64,66 52,72 Q34,78 16,70Z"
            fill="#1e1e1e" filter="url(#inky)"/>
      <!-- Pronounced arch -->
      <path d="M28,36 Q40,22 54,34 Q58,46 50,58 Q42,66 34,62 Q24,56 28,36Z"
            fill="#4a4a4a"/>
      <!-- Hackles -->
      <path d="M32,24 Q36,14 40,24" fill="#2a2a2a"/>
      <path d="M40,22 Q44,12 48,22" fill="#2a2a2a"/>
    </g>

    <ellipse cx="28" cy="74" rx="7" ry="4" fill="#2a2a2a"/>
    <ellipse cx="50" cy="74" rx="7" ry="4" fill="#2a2a2a"/>

    <!-- Wide-eyed startled head -->
    <g transform="translate(0,-4)">
      <path d="M20,28 L16,12 L28,22 Z" fill="#1a1a1a"/>
      <path d="M54,28 L58,12 L48,22 Z" fill="#1a1a1a"/>
      <path d="M21,26 L18,15 L26,21 Z" fill="#a06060" opacity="0.7"/>
      <path d="M53,26 L56,15 L50,21 Z" fill="#a06060" opacity="0.7"/>
      <ellipse cx="38" cy="28" rx="20" ry="17" fill="#1e1e1e" filter="url(#ink-shadow)"/>
      <!-- HUGE startled eyes -->
      <circle cx="30" cy="27" r="7" fill="#e8c547"/>
      <circle cx="30" cy="27" r="3" fill="#111"/>
      <circle cx="32" cy="25" r="2" fill="white" opacity="0.9"/>
      <circle cx="46" cy="27" r="7" fill="#e8c547"/>
      <circle cx="46" cy="27" r="3" fill="#111"/>
      <circle cx="48" cy="25" r="2" fill="white" opacity="0.9"/>
      <!-- Shocked open mouth -->
      <ellipse cx="38" cy="36" rx="4" ry="3" fill="#111"/>
      <line x1="18" y1="32" x2="28" y2="30" stroke="#888" stroke-width="0.7"/>
      <line x1="48" y1="30" x2="58" y2="32" stroke="#888" stroke-width="0.7"/>
    </g>
  </g>

  <!-- ═══════════════════════════════════════════════════════
       POSE: sunbathing (stretched out lazy)
  ════════════════════════════════════════════════════════════ -->
  <g id="pose-sunbathing" class="pose" style="display:none">
    <!-- Very stretched horizontal body -->
    <g filter="url(#ink-shadow)">
      <path d="M4,44 Q8,36 20,34 Q34,32 52,34 Q66,36 72,44 Q70,56 56,58 Q38,60 22,58 Q8,56 4,44Z"
            fill="#1e1e1e" filter="url(#inky)"/>
      <path d="M10,46 Q18,38 34,38 Q50,38 62,44 Q60,54 48,56 Q30,58 16,54 Q8,50 10,46Z"
            fill="#4a4a4a"/>
    </g>
    <!-- Stretched front paws -->
    <path d="M4,50 Q2,52 4,56 Q8,58 12,56" stroke="#1a1a1a" stroke-width="8" fill="none" stroke-linecap="round"/>
    <path d="M8,56 Q6,58 8,62 Q12,64 16,62" stroke="#1a1a1a" stroke-width="6" fill="none" stroke-linecap="round"/>
    <!-- Stretched rear paws -->
    <path d="M68,50 Q72,54 70,58 Q66,60 62,58" stroke="#1a1a1a" stroke-width="8" fill="none" stroke-linecap="round"/>
    <!-- Tail lazily draped -->
    <path d="M70,46 Q80,48 78,56 Q76,62 70,60" fill="none" stroke="#3a3a3a" stroke-width="7" stroke-linecap="round"/>
    <!-- Head sideways/resting -->
    <g transform="translate(24,24) rotate(90, 16, 16)">
      <ellipse cx="16" cy="16" rx="15" ry="13" fill="#242424" filter="url(#ink-shadow)"/>
      <!-- Lazy half-closed eyes -->
      <path d="M8,14 Q11,17 14,14" fill="none" stroke="#888" stroke-width="2.5" stroke-linecap="round"/>
      <path d="M18,14 Q21,17 24,14" fill="none" stroke="#888" stroke-width="2.5" stroke-linecap="round"/>
      <!-- Content smile -->
      <path d="M11,20 Q16,23 21,20" fill="none" stroke="#555" stroke-width="1.2" stroke-linecap="round"/>
    </g>
  </g>

  <!-- ═══════════════════════════════════════════════════════
       OVERLAY: Speech bubble (shared, positioned by JS)
  ════════════════════════════════════════════════════════════ -->
  <g id="speech-bubble" style="display:none; opacity:0">
    <rect x="0" y="0" width="90" height="28" rx="8" fill="#f0ede8" stroke="#ccc" stroke-width="1"/>
    <path d="M16,28 L12,36 L22,28 Z" fill="#f0ede8" stroke="#ccc" stroke-width="1"/>
    <text id="svg-bubble-text" x="45" y="18" text-anchor="middle" font-size="8" font-family="'Segoe UI',system-ui,sans-serif" fill="#333">...</text>
  </g>

  <!-- ═══════════════════════════════════════════════════════
       OVERLAY: Z bubbles for sleeping
  ════════════════════════════════════════════════════════════ -->
  <g id="z-bubbles" style="display:none">
    <text id="z1" x="62" y="40" font-size="10" fill="#8899aa" opacity="0" font-family="Georgia,serif" font-style="italic">z</text>
    <text id="z2" x="68" y="30" font-size="13" fill="#8899aa" opacity="0" font-family="Georgia,serif" font-style="italic">Z</text>
    <text id="z3" x="74" y="18" font-size="16" fill="#8899aa" opacity="0" font-family="Georgia,serif" font-style="italic">Z</text>
  </g>

  <!-- OVERLAY: Heart bubble for hungry -->
  <g id="heart-bubble" style="display:none">
    <path d="M44,8 C44,4 48,2 50,6 C52,2 56,4 56,8 C56,12 50,18 50,18 C50,18 44,12 44,8Z"
          fill="#ff6b8a" opacity="0.9"/>
  </g>

  <!-- OVERLAY: Steam clouds for angry -->
  <g id="steam-clouds" style="display:none">
    <circle cx="22" cy="18" r="4" fill="#ccc" opacity="0"/>
    <circle cx="18" cy="12" r="3" fill="#ccc" opacity="0"/>
    <circle cx="24" cy="8" r="2.5" fill="#ccc" opacity="0"/>
    <circle cx="56" cy="18" r="4" fill="#ccc" opacity="0"/>
    <circle cx="60" cy="12" r="3" fill="#ccc" opacity="0"/>
    <circle cx="54" cy="8" r="2.5" fill="#ccc" opacity="0"/>
  </g>

  <!-- OVERLAY: Sneeze particles -->
  <g id="sneeze-particles" style="display:none">
    <circle cx="30" cy="50" r="2" fill="#aaddff" opacity="0"/>
    <circle cx="36" cy="55" r="1.5" fill="#aaddff" opacity="0"/>
    <circle cx="42" cy="52" r="2.5" fill="#aaddff" opacity="0"/>
    <circle cx="48" cy="50" r="1.5" fill="#aaddff" opacity="0"/>
    <text x="22" y="56" font-size="8" fill="#88aacc" opacity="0" font-family="sans-serif">achoo!</text>
  </g>

  <!-- OVERLAY: Moonlight crescent accessory -->
  <g id="moon-accessory" style="display:none">
    <path d="M38,18 C34,14 34,8 38,6 C34,6 30,10 30,15 C30,20 34,22 38,22 C36,20 36,16 38,18Z"
          fill="#ffd966" opacity="0.9"/>
  </g>

  <!-- OVERLAY: XP Accessories -->
  <!-- Bow (milestone 1) -->
  <g id="accessory-bow" style="display:none">
    <path d="M32,18 Q36,14 40,18 Q44,14 48,18 Q44,22 40,18 Q36,22 32,18Z"
          fill="#ff6699" stroke="#cc3366" stroke-width="0.5"/>
    <circle cx="40" cy="18" r="2" fill="#cc3366"/>
  </g>
  <!-- Bandana (milestone 2) -->
  <g id="accessory-bandana" style="display:none">
    <path d="M26,38 Q40,44 54,38 Q50,46 40,48 Q30,46 26,38Z"
          fill="#cc4400" stroke="#aa3300" stroke-width="0.5" opacity="0.9"/>
  </g>
  <!-- Crown (milestone 3) -->
  <g id="accessory-crown" style="display:none">
    <path d="M28,20 L30,10 L36,16 L40,6 L44,16 L50,10 L52,20 Z"
          fill="#ffd700" stroke="#cc9900" stroke-width="0.5"/>
  </g>
</svg>
